<svg xmlns="http://www.w3.org/2000/svg" width="489.456" height="96" version="1.1" viewBox="0 0 129.502 25.4"><g style="line-height:1.25"><path font-style="normal" style="-inkscape-font-specification:'Odibee Sans'" d="m82.964 271.6-3.18.744V297h3.18l1.59-4.262L86.142 297h3.18l-3.18-8.456 1.984-5.276h2.785V297h3.179v-13.732h1.928c.338 0 .631.124.88.372.247.226.37.507.37.845V297h3.18v-13.732h1.928c.338 0 .632.124.88.372.248.226.372.507.372.845V297h3.145v-13.732h6.933c.36 0 .654.124.88.372.248.226.372.507.372.845v1.252c0 .338-.124.632-.372.88-.226.225-.52.338-.88.338h-2.638c-.676 0-1.262.248-1.759.744a2.348 2.348 0 0 0-.71 1.725v5.107c0 .699.237 1.285.71 1.758a2.464 2.464 0 0 0 1.759.711h7.069v-14.442c0-.676-.248-1.251-.744-1.725a2.296 2.296 0 0 0-1.725-.744H86.143l-3.18 8.455zm-20.056.067-3.18.71V297h3.18v-13.732h4.971v11.263c0 .676.237 1.262.71 1.758.474.474 1.06.711 1.76.711h4.599c.676 0 1.251-.237 1.725-.71.473-.497.71-1.083.71-1.76v-11.972a2.35 2.35 0 0 0-.71-1.725 2.296 2.296 0 0 0-1.725-.744h-12.04zM0 273.291V297h10.18c.677 0 1.252-.237 1.725-.71.474-.474.71-1.06.71-1.76v-9.807a2.41 2.41 0 0 0-.44-1.387 2.23 2.23 0 0 0-1.116-.88v-6.73c0-.654-.236-1.218-.71-1.691a2.333 2.333 0 0 0-1.758-.744zm47.248.033c-.676 0-1.251.237-1.725.711a2.348 2.348 0 0 0-.71 1.725v7.271c0 .677.237 1.252.71 1.725.474.474 1.049.71 1.725.71h5.75c.338 0 .62.124.846.372.248.226.372.508.372.846v5.953c0 .338-.124.63-.372.879a1.147 1.147 0 0 1-.846.338h-3.856c-.316 0-.597-.113-.845-.338a1.263 1.263 0 0 1-.338-.88v-2.604l-3.146-.71v5.242c0 .677.237 1.252.71 1.725a2.349 2.349 0 0 0 1.725.711h7.678c.676 0 1.251-.237 1.725-.71.473-.474.71-1.05.71-1.726v-9.808c0-.676-.237-1.251-.71-1.725a2.348 2.348 0 0 0-1.725-.71h-5.784c-.316 0-.597-.113-.845-.338a1.263 1.263 0 0 1-.338-.88v-3.416c0-.338.112-.62.338-.845.248-.248.53-.372.845-.372h3.856c.338 0 .62.124.846.372.248.226.372.507.372.845v.981l3.145.744v-3.652a2.35 2.35 0 0 0-.71-1.725 2.349 2.349 0 0 0-1.725-.71zM3.18 276.436h3.484c.338 0 .631.124.88.372a1.1 1.1 0 0 1 .371.846v3.45c0 .315-.124.597-.372.845a1.203 1.203 0 0 1-.88.372H3.18zm14.273 3.653c-.677 0-1.263.237-1.759.71a2.348 2.348 0 0 0-.71 1.725v12.007c0 .676.237 1.262.71 1.758a2.46 2.46 0 0 0 1.759.711h12.413v-13.732h1.96c.317 0 .598.113.846.338.248.226.372.519.372.88V297h3.18v-14.476c0-.677-.249-1.251-.745-1.725-.496-.473-1.07-.71-1.725-.71h-7.068v13.731h-7.272c-.36 0-.665-.112-.913-.338a1.265 1.265 0 0 1-.338-.88v-2.468h3.89c.698 0 1.284-.237 1.758-.71.473-.496.71-1.082.71-1.759v-5.141a2.35 2.35 0 0 0-.71-1.725c-.474-.473-1.06-.71-1.759-.71zm102.512 0V297h3.18v-13.732h1.961c.316 0 .598.113.846.338.248.226.372.519.372.88V297h3.179v-14.476c0-.677-.248-1.251-.744-1.725-.496-.473-1.071-.71-1.725-.71zm-100.55 3.179h.71c.338 0 .62.124.845.372.248.226.372.507.372.846v1.251c0 .338-.124.632-.372.88a1.148 1.148 0 0 1-.846.338h-1.961v-2.47c0-.338.113-.62.338-.845a1.24 1.24 0 0 1 .913-.372zm52.862 0h.71c.338 0 .632.124.88.372.248.226.372.507.372.846v8.117c0 .338-.124.631-.372.88a1.264 1.264 0 0 1-.88.337h-.71c-.338 0-.631-.112-.88-.338a1.264 1.264 0 0 1-.337-.88v-8.116c0-.339.112-.62.338-.846a1.2 1.2 0 0 1 .88-.372zM3.18 285.433h5.107c.316 0 .586.124.812.372.248.248.372.53.372.845v5.953c0 .36-.124.665-.372.913a1.106 1.106 0 0 1-.812.338H3.18zm109.818 4.7h1.962v3.687h-1.962c-.338 0-.631-.112-.88-.338a1.264 1.264 0 0 1-.337-.88v-1.25c0-.338.112-.62.338-.846a1.2 1.2 0 0 1 .88-.372z" fill="#000" fill-opacity="1" aria-label="Ben Stokman" font-family="Odibee Sans" font-size="33.822" font-stretch="normal" font-variant="normal" font-weight="400" letter-spacing="0" transform="translate(0 -271.6)" word-spacing="0"/></g></svg>