<svg xmlns="http://www.w3.org/2000/svg" xmlns:xlink="http://www.w3.org/1999/xlink" width="489.456" height="96" viewBox="0 0 129.502 25.4" xmlns:v="https://vecta.io/nano"><path d="M0 25.4V1.691h8.591q1.048 0 1.759.744.71.71.71 1.691v6.73q.676.237 1.116.879.44.643.44 1.387v9.808q0 1.048-.71 1.759-.71.71-1.725.71zm3.179-14.679h3.484q.507 0 .879-.372.372-.372.372-.846v-3.45q0-.507-.372-.846-.372-.372-.879-.372H3.179zm0 11.533h5.107q.474 0 .812-.338.372-.372.372-.913V15.05q0-.474-.372-.846-.338-.372-.812-.372H3.179zM17.452 25.4a2.46 2.46 0 0 1-1.759-.71 2.46 2.46 0 0 1-.71-1.759V10.924a2.35 2.35 0 0 1 .71-1.725 2.46 2.46 0 0 1 1.759-.71h4.6a2.39 2.39 0 0 1 1.759.71c.474.473.71 1.048.71 1.725v5.141a2.46 2.46 0 0 1-.71 1.759 2.39 2.39 0 0 1-1.759.71h-3.889v2.469c0 .338.113.631.338.879.248.225.552.338.913.338l10.444.033.007 3.146zm.71-10.045h1.962a1.15 1.15 0 0 0 .846-.338 1.2 1.2 0 0 0 .372-.879v-1.251c0-.338-.124-.62-.372-.846-.225-.248-.507-.372-.846-.372h-.71a1.24 1.24 0 0 0-.913.372c-.225.225-.338.507-.338.846z"/><use xlink:href="#B"/><path d="M47.248 25.4q-1.015 0-1.725-.71-.71-.71-.71-1.725v-5.242l3.145.71v2.604q0 .507.338.879.372.338.846.338h3.856q.507 0 .846-.338.372-.372.372-.879v-5.953q0-.507-.372-.846-.338-.372-.846-.372h-5.75q-1.015 0-1.725-.71-.71-.71-.71-1.725V4.16q0-1.015.71-1.725.71-.71 1.725-.71h7.677q1.015 0 1.725.71.71.71.71 1.725v3.653l-3.145-.744v-.981q0-.507-.372-.846-.338-.372-.846-.372h-3.856q-.474 0-.846.372-.338.338-.338.846v3.416q0 .507.338.879.372.338.846.338h5.783q1.015 0 1.725.71.71.71.71 1.725v9.808q0 1.015-.71 1.725-.71.71-1.725.71zm12.51.011L59.361.773l3.179-.71v8.422l12.057.006-1.547 3.173H62.54v13.732z"/><path d="M70.348 25.4q-1.048 0-1.759-.71-.71-.744-.71-1.759V10.958q0-1.015.71-1.725.71-.744 1.759-.744h4.6q1.015 0 1.725.744.71.71.71 1.725v11.973q0 1.015-.71 1.759-.71.71-1.725.71zm1.928-3.179h.71q.507 0 .879-.338.372-.372.372-.879v-8.117q0-.507-.372-.846-.372-.372-.879-.372h-.71q-.507 0-.879.372-.338.338-.338.846v8.117q0 .507.338.879.372.338.879.338zm7.508 3.179V.744L82.964 0v16.945l3.179-8.455h3.179l-3.179 8.455 3.179 8.455h-3.179l-1.59-4.262-1.59 4.262zm11.128 0V8.489h13.427q1.015 0 1.725.744.71.71.71 1.725V25.4h-3.145V12.886q0-.507-.372-.846-.372-.372-.879-.372h-1.928V25.4h-3.18V12.886q0-.507-.372-.846-.372-.372-.879-.372h-1.928V25.4z"/><path d="M111.069 25.4a2.46 2.46 0 0 1-1.759-.71c-.474-.473-.71-1.06-.71-1.759v-5.107c0-.676.237-1.251.71-1.725.496-.496 1.082-.744 1.759-.744h2.638c.361 0 .654-.113.879-.338a1.2 1.2 0 0 0 .372-.879v-1.251c0-.338-.124-.62-.372-.846-.225-.248-.519-.372-.879-.372l-27.634.033.07-3.213h29.526c.676 0 1.251.248 1.725.744.496.473.744 1.048.744 1.725V25.4zm1.928-3.179h1.962v-3.687h-1.962a1.2 1.2 0 0 0-.879.372c-.225.225-.338.507-.338.846v1.251c0 .338.113.631.338.879.248.225.541.338.879.338z"/><use xlink:href="#B" x="93.279"/><defs ><path id="B" d="M26.685 25.4V8.489h7.069q.981 0 1.725.71.744.71.744 1.725V25.4h-3.179V12.886q0-.541-.372-.879-.372-.338-.846-.338h-1.962V25.4z"/></defs></svg>