<svg xmlns="http://www.w3.org/2000/svg" width="400" height="400">
  <path d="M189.9,224.1L121.8,215L191.2,275.1Z" fill="rgb(252,80,74)" shape-rendering="crispEdges"/>
  <path d="M121.8,215L121,300.6L191.2,275.1Z" fill="rgb(252,78,76)" shape-rendering="crispEdges"/>
  <path d="M121,300.6L177.8,345.4L191.2,275.1Z" fill="rgb(253,83,73)" shape-rendering="crispEdges"/>
  <path d="M121.8,215L49.2,302.1L121,300.6Z" fill="rgb(247,75,76)" shape-rendering="crispEdges"/>
  <path d="M121,300.6L140.7,376.5L177.8,345.4Z" fill="rgb(253,82,74)" shape-rendering="crispEdges"/>
  <path d="M54.4,367.5L140.7,376.5L121,300.6Z" fill="rgb(249,79,75)" shape-rendering="crispEdges"/>
  <path d="M53.4,151.3L28.4,195L121.8,215Z" fill="rgb(243,70,77)" shape-rendering="crispEdges"/>
  <path d="M121.8,215L28.4,195L49.2,302.1Z" fill="rgb(243,72,75)" shape-rendering="crispEdges"/>
  <path d="M267.7,339.7L287,247.9L191.2,275.1Z" fill="rgb(253,94,64)" shape-rendering="crispEdges"/>
  <path d="M191.2,275.1L287,247.9L189.9,224.1Z" fill="rgb(253,89,68)" shape-rendering="crispEdges"/>
  <path d="M104,111.8L121.8,215L186,104.5Z" fill="rgb(252,71,80)" shape-rendering="crispEdges"/>
  <path d="M104,111.8L53.4,151.3L121.8,215Z" fill="rgb(246,70,79)" shape-rendering="crispEdges"/>
  <path d="M287,247.9L288,212.4L189.9,224.1Z" fill="rgb(253,93,65)" shape-rendering="crispEdges"/>
  <path d="M200.3,398.5L267.7,339.7L177.8,345.4Z" fill="rgb(253,93,66)" shape-rendering="crispEdges"/>
  <path d="M177.8,345.4L267.7,339.7L191.2,275.1Z" fill="rgb(253,91,67)" shape-rendering="crispEdges"/>
  <path d="M186,104.5L121.8,215L189.9,224.1Z" fill="rgb(252,78,76)" shape-rendering="crispEdges"/>
  <path d="M249.6,132L186,104.5L189.9,224.1Z" fill="rgb(253,83,72)" shape-rendering="crispEdges"/>
  <path d="M-6.7,302.5L54.4,367.5L49.2,302.1Z" fill="rgb(238,75,72)" shape-rendering="crispEdges"/>
  <path d="M49.2,302.1L54.4,367.5L121,300.6Z" fill="rgb(244,76,74)" shape-rendering="crispEdges"/>
  <path d="M288,212.4L249.6,132L189.9,224.1Z" fill="rgb(253,90,67)" shape-rendering="crispEdges"/>
  <path d="M54.4,367.5L139.7,405.6L140.7,376.5Z" fill="rgb(250,81,74)" shape-rendering="crispEdges"/>
  <path d="M140.7,376.5L200.3,398.5L177.8,345.4Z" fill="rgb(253,87,71)" shape-rendering="crispEdges"/>
  <path d="M139.7,405.6L200.3,398.5L140.7,376.5Z" fill="rgb(253,86,72)" shape-rendering="crispEdges"/>
  <path d="M28.4,195L-6.7,302.5L49.2,302.1Z" fill="rgb(237,72,73)" shape-rendering="crispEdges"/>
  <path d="M53.4,151.3L-3.2,177.6L28.4,195Z" fill="rgb(237,68,75)" shape-rendering="crispEdges"/>
  <path d="M28.4,195L-3.2,177.6L-6.7,302.5Z" fill="rgb(235,69,73)" shape-rendering="crispEdges"/>
  <path d="M-17.7,104.4L-3.2,177.6L53.4,151.3Z" fill="rgb(235,66,76)" shape-rendering="crispEdges"/>
  <path d="M204.8,62.3L129.8,69.4L186,104.5Z" fill="rgb(250,76,76)" shape-rendering="crispEdges"/>
  <path d="M186,104.5L129.8,69.4L104,111.8Z" fill="rgb(251,71,80)" shape-rendering="crispEdges"/>
  <path d="M104,111.8L65.2,70.9L53.4,151.3Z" fill="rgb(243,68,78)" shape-rendering="crispEdges"/>
  <path d="M249.6,132L204.8,62.3L186,104.5Z" fill="rgb(251,83,72)" shape-rendering="crispEdges"/>
  <path d="M-35.7,373.2L36.7,411.1L54.4,367.5Z" fill="rgb(237,77,70)" shape-rendering="crispEdges"/>
  <path d="M54.4,367.5L36.7,411.1L139.7,405.6Z" fill="rgb(245,80,72)" shape-rendering="crispEdges"/>
  <path d="M-45.6,34.6L65.2,70.9L-25.3,-5.9Z" fill="rgb(230,64,74)" shape-rendering="crispEdges"/>
  <path d="M129.8,69.4L65.2,70.9L104,111.8Z" fill="rgb(246,68,79)" shape-rendering="crispEdges"/>
  <path d="M287,247.9L362.6,209.8L288,212.4Z" fill="rgb(253,102,59)" shape-rendering="crispEdges"/>
  <path d="M288,212.4L348.8,108.3L249.6,132Z" fill="rgb(253,97,63)" shape-rendering="crispEdges"/>
  <path d="M249.6,132L282,53.3L204.8,62.3Z" fill="rgb(251,88,68)" shape-rendering="crispEdges"/>
  <path d="M373.1,272L362.6,209.8L287,247.9Z" fill="rgb(254,107,55)" shape-rendering="crispEdges"/>
  <path d="M267.7,339.7L373.1,272L287,247.9Z" fill="rgb(253,104,57)" shape-rendering="crispEdges"/>
  <path d="M363.1,361.1L373.1,272L267.7,339.7Z" fill="rgb(254,109,53)" shape-rendering="crispEdges"/>
  <path d="M65.2,70.9L-17.7,104.4L53.4,151.3Z" fill="rgb(237,66,77)" shape-rendering="crispEdges"/>
  <path d="M-72.3,275.3L-35.7,373.2L-6.7,302.5Z" fill="rgb(234,73,71)" shape-rendering="crispEdges"/>
  <path d="M-72.3,275.3L-6.7,302.5L-3.2,177.6Z" fill="rgb(234,70,72)" shape-rendering="crispEdges"/>
  <path d="M-6.7,302.5L-35.7,373.2L54.4,367.5Z" fill="rgb(235,75,70)" shape-rendering="crispEdges"/>
  <path d="M-113.9,201L-72.3,275.3L-3.2,177.6Z" fill="rgb(234,69,73)" shape-rendering="crispEdges"/>
  <path d="M191.7,515.1L278,445.2L200.3,398.5Z" fill="rgb(253,96,64)" shape-rendering="crispEdges"/>
  <path d="M200.3,398.5L278,445.2L267.7,339.7Z" fill="rgb(253,99,61)" shape-rendering="crispEdges"/>
  <path d="M191.7,515.1L200.3,398.5L139.7,405.6Z" fill="rgb(253,89,70)" shape-rendering="crispEdges"/>
  <path d="M348.8,108.3L282,53.3L249.6,132Z" fill="rgb(252,96,63)" shape-rendering="crispEdges"/>
  <path d="M33.5,-19.1L65.2,70.9L129.8,69.4Z" fill="rgb(241,67,78)" shape-rendering="crispEdges"/>
  <path d="M328.7,445.9L363.1,361.1L267.7,339.7Z" fill="rgb(254,109,53)" shape-rendering="crispEdges"/>
  <path d="M2.1,522L68.4,475.8L36.7,411.1Z" fill="rgb(239,79,71)" shape-rendering="crispEdges"/>
  <path d="M36.7,411.1L68.4,475.8L139.7,405.6Z" fill="rgb(245,80,72)" shape-rendering="crispEdges"/>
  <path d="M-35.7,373.2L-25.3,412.9L36.7,411.1Z" fill="rgb(234,77,69)" shape-rendering="crispEdges"/>
  <path d="M-108.5,412.4L-25.3,412.9L-35.7,373.2Z" fill="rgb(234,77,69)" shape-rendering="crispEdges"/>
  <path d="M362.6,209.8L348.8,108.3L288,212.4Z" fill="rgb(253,104,58)" shape-rendering="crispEdges"/>
  <path d="M402.8,133.6L348.8,108.3L362.6,209.8Z" fill="rgb(254,109,55)" shape-rendering="crispEdges"/>
  <path d="M-17.7,104.4L-77.6,149.2L-3.2,177.6Z" fill="rgb(234,66,75)" shape-rendering="crispEdges"/>
  <path d="M290.4,505.2L328.7,445.9L278,445.2Z" fill="rgb(253,107,55)" shape-rendering="crispEdges"/>
  <path d="M278,445.2L328.7,445.9L267.7,339.7Z" fill="rgb(253,106,56)" shape-rendering="crispEdges"/>
  <path d="M68.4,475.8L142.1,516.9L139.7,405.6Z" fill="rgb(250,82,74)" shape-rendering="crispEdges"/>
  <path d="M142.1,516.9L191.7,515.1L139.7,405.6Z" fill="rgb(253,86,72)" shape-rendering="crispEdges"/>
  <path d="M412.8,324.6L421.1,254.3L373.1,272Z" fill="rgb(254,118,46)" shape-rendering="crispEdges"/>
  <path d="M373.1,272L421.1,254.3L362.6,209.8Z" fill="rgb(254,114,49)" shape-rendering="crispEdges"/>
  <path d="M412.8,324.6L373.1,272L363.1,361.1Z" fill="rgb(254,117,47)" shape-rendering="crispEdges"/>
  <path d="M-77.6,149.2L-113.9,201L-3.2,177.6Z" fill="rgb(234,67,74)" shape-rendering="crispEdges"/>
  <path d="M-72.3,275.3L-116.9,340.3L-35.7,373.2Z" fill="rgb(234,74,71)" shape-rendering="crispEdges"/>
  <path d="M421.1,254.3L416.9,197.7L362.6,209.8Z" fill="rgb(254,116,49)" shape-rendering="crispEdges"/>
  <path d="M415.4,429L412.8,324.6L363.1,361.1Z" fill="rgb(254,121,43)" shape-rendering="crispEdges"/>
  <path d="M401.6,74.6L351.6,60.3L348.8,108.3Z" fill="rgb(252,107,55)" shape-rendering="crispEdges"/>
  <path d="M348.8,108.3L351.6,60.3L282,53.3Z" fill="rgb(251,101,59)" shape-rendering="crispEdges"/>
  <path d="M416.9,197.7L402.8,133.6L362.6,209.8Z" fill="rgb(254,114,51)" shape-rendering="crispEdges"/>
  <path d="M-113.9,201L-116.9,340.3L-72.3,275.3Z" fill="rgb(234,71,72)" shape-rendering="crispEdges"/>
  <path d="M191.7,515.1L290.4,505.2L278,445.2Z" fill="rgb(253,100,60)" shape-rendering="crispEdges"/>
  <path d="M328.7,445.9L415.4,429L363.1,361.1Z" fill="rgb(254,117,46)" shape-rendering="crispEdges"/>
  <path d="M65.2,70.9L-45.6,34.6L-17.7,104.4Z" fill="rgb(231,65,75)" shape-rendering="crispEdges"/>
  <path d="M-17.7,104.4L-128,67.1L-77.6,149.2Z" fill="rgb(233,65,75)" shape-rendering="crispEdges"/>
  <path d="M-77.6,149.2L-128,67.1L-113.9,201Z" fill="rgb(234,65,75)" shape-rendering="crispEdges"/>
  <path d="M33.5,-19.1L129.8,69.4L149.3,-43.9Z" fill="rgb(243,68,78)" shape-rendering="crispEdges"/>
  <path d="M149.3,-43.9L129.8,69.4L204.8,62.3Z" fill="rgb(249,74,77)" shape-rendering="crispEdges"/>
  <path d="M149.3,-43.9L204.8,62.3L193.1,-41.2Z" fill="rgb(248,77,74)" shape-rendering="crispEdges"/>
  <path d="M193.1,-41.2L204.8,62.3L263.7,-32.7Z" fill="rgb(248,83,70)" shape-rendering="crispEdges"/>
  <path d="M263.7,-32.7L204.8,62.3L282,53.3Z" fill="rgb(249,88,67)" shape-rendering="crispEdges"/>
  <path d="M324.2,-36.4L263.7,-32.7L282,53.3Z" fill="rgb(248,94,63)" shape-rendering="crispEdges"/>
  <path d="M402.8,133.6L401.6,74.6L348.8,108.3Z" fill="rgb(253,110,53)" shape-rendering="crispEdges"/>
  <path d="M351.6,60.3L324.2,-36.4L282,53.3Z" fill="rgb(250,99,60)" shape-rendering="crispEdges"/>
  <path d="M521.1,114.9L401.6,74.6L402.8,133.6Z" fill="rgb(253,113,52)" shape-rendering="crispEdges"/>
  <path d="M-116.9,340.3L-108.5,412.4L-35.7,373.2Z" fill="rgb(234,76,70)" shape-rendering="crispEdges"/>
  <path d="M-25.3,412.9L2.1,522L36.7,411.1Z" fill="rgb(235,77,69)" shape-rendering="crispEdges"/>
  <path d="M68.4,475.8L2.1,522L142.1,516.9Z" fill="rgb(244,80,72)" shape-rendering="crispEdges"/>
  <path d="M290.4,505.2L364.6,475.5L328.7,445.9Z" fill="rgb(254,111,52)" shape-rendering="crispEdges"/>
  <path d="M-122.5,505L2.1,522L-25.3,412.9Z" fill="rgb(234,77,69)" shape-rendering="crispEdges"/>
  <path d="M33.5,-19.1L-25.3,-5.9L65.2,70.9Z" fill="rgb(233,65,75)" shape-rendering="crispEdges"/>
  <path d="M364.6,475.5L415.4,429L328.7,445.9Z" fill="rgb(254,118,46)" shape-rendering="crispEdges"/>
  <path d="M412.8,324.6L524,255.5L421.1,254.3Z" fill="rgb(254,118,46)" shape-rendering="crispEdges"/>
  <path d="M273.8,-103L178.8,-80.1L193.1,-41.2Z" fill="rgb(248,82,71)" shape-rendering="crispEdges"/>
  <path d="M193.1,-41.2L178.8,-80.1L149.3,-43.9Z" fill="rgb(248,76,75)" shape-rendering="crispEdges"/>
  <path d="M149.3,-43.9L32.4,-72.6L33.5,-19.1Z" fill="rgb(239,67,77)" shape-rendering="crispEdges"/>
  <path d="M33.5,-19.1L32.4,-72.6L-25.3,-5.9Z" fill="rgb(231,64,75)" shape-rendering="crispEdges"/>
  <path d="M-45.6,34.6L-128,67.1L-17.7,104.4Z" fill="rgb(231,65,75)" shape-rendering="crispEdges"/>
  <path d="M-113.9,201L-128,67.1L-116.9,340.3Z" fill="rgb(234,68,74)" shape-rendering="crispEdges"/>
  <path d="M-111,-29.9L-128,67.1L-45.6,34.6Z" fill="rgb(230,64,74)" shape-rendering="crispEdges"/>
  <path d="M426.9,-9.5L324.2,-36.4L351.6,60.3Z" fill="rgb(249,107,54)" shape-rendering="crispEdges"/>
  <path d="M263.7,-32.7L273.8,-103L193.1,-41.2Z" fill="rgb(248,87,67)" shape-rendering="crispEdges"/>
  <path d="M133.2,-95.6L32.4,-72.6L149.3,-43.9Z" fill="rgb(243,68,78)" shape-rendering="crispEdges"/>
  <path d="M-25.3,-5.9L-111,-29.9L-45.6,34.6Z" fill="rgb(229,64,74)" shape-rendering="crispEdges"/>
  <path d="M273.8,-103L133.2,-95.6L178.8,-80.1Z" fill="rgb(248,79,73)" shape-rendering="crispEdges"/>
  <path d="M178.8,-80.1L133.2,-95.6L149.3,-43.9Z" fill="rgb(248,72,77)" shape-rendering="crispEdges"/>
  <path d="M290.4,505.2L415.9,487.9L364.6,475.5Z" fill="rgb(254,116,48)" shape-rendering="crispEdges"/>
  <path d="M364.6,475.5L415.9,487.9L415.4,429Z" fill="rgb(254,122,42)" shape-rendering="crispEdges"/>
  <path d="M522.2,347.9L524,255.5L412.8,324.6Z" fill="rgb(254,119,45)" shape-rendering="crispEdges"/>
  <path d="M421.1,254.3L519.7,192.1L416.9,197.7Z" fill="rgb(254,116,49)" shape-rendering="crispEdges"/>
  <path d="M416.9,197.7L519.7,192.1L402.8,133.6Z" fill="rgb(254,114,50)" shape-rendering="crispEdges"/>
  <path d="M478,430.4L412.8,324.6L415.4,429Z" fill="rgb(254,122,42)" shape-rendering="crispEdges"/>
  <path d="M415.9,487.9L478,430.4L415.4,429Z" fill="rgb(254,122,42)" shape-rendering="crispEdges"/>
  <path d="M524,255.5L519.7,192.1L421.1,254.3Z" fill="rgb(254,116,48)" shape-rendering="crispEdges"/>
  <path d="M401.6,74.6L426.9,-9.5L351.6,60.3Z" fill="rgb(251,111,52)" shape-rendering="crispEdges"/>
  <path d="M324.2,-36.4L273.8,-103L263.7,-32.7Z" fill="rgb(248,93,63)" shape-rendering="crispEdges"/>
  <path d="M331.1,-87.6L273.8,-103L324.2,-36.4Z" fill="rgb(249,97,61)" shape-rendering="crispEdges"/>
  <path d="M-108.5,412.4L-122.5,505L-25.3,412.9Z" fill="rgb(234,77,69)" shape-rendering="crispEdges"/>
  <path d="M-116.9,340.3L-122.5,505L-108.5,412.4Z" fill="rgb(234,77,69)" shape-rendering="crispEdges"/>
  <path d="M-128,67.1L-122.5,505L-116.9,340.3Z" fill="rgb(234,73,71)" shape-rendering="crispEdges"/>
  <path d="M507.2,24.2L426.9,-9.5L401.6,74.6Z" fill="rgb(250,112,51)" shape-rendering="crispEdges"/>
  <path d="M426.9,-9.5L331.1,-87.6L324.2,-36.4Z" fill="rgb(249,105,55)" shape-rendering="crispEdges"/>
  <path d="M478,430.4L522.2,347.9L412.8,324.6Z" fill="rgb(254,121,43)" shape-rendering="crispEdges"/>
  <path d="M-84.4,-95.1L-111,-29.9L-25.3,-5.9Z" fill="rgb(229,64,74)" shape-rendering="crispEdges"/>
  <path d="M519.7,192.1L521.1,114.9L402.8,133.6Z" fill="rgb(254,113,51)" shape-rendering="crispEdges"/>
  <path d="M524,255.5L521.1,114.9L519.7,192.1Z" fill="rgb(254,115,50)" shape-rendering="crispEdges"/>
  <path d="M133.2,-95.6L-26.4,-120.4L32.4,-72.6Z" fill="rgb(235,66,76)" shape-rendering="crispEdges"/>
  <path d="M32.4,-72.6L-26.4,-120.4L-25.3,-5.9Z" fill="rgb(229,64,74)" shape-rendering="crispEdges"/>
  <path d="M273.8,-103L-26.4,-120.4L133.2,-95.6Z" fill="rgb(246,69,79)" shape-rendering="crispEdges"/>
  <path d="M-26.4,-120.4L-84.4,-95.1L-25.3,-5.9Z" fill="rgb(229,64,74)" shape-rendering="crispEdges"/>
  <path d="M521.1,114.9L507.2,24.2L401.6,74.6Z" fill="rgb(252,112,51)" shape-rendering="crispEdges"/>
  <path d="M426.9,-9.5L443.4,-128.1L331.1,-87.6Z" fill="rgb(249,111,51)" shape-rendering="crispEdges"/>
  <path d="M415.9,487.9L494.3,511.4L478,430.4Z" fill="rgb(254,122,42)" shape-rendering="crispEdges"/>
  <path d="M478,430.4L494.3,511.4L522.2,347.9Z" fill="rgb(254,122,42)" shape-rendering="crispEdges"/>
  <path d="M290.4,505.2L494.3,511.4L415.9,487.9Z" fill="rgb(254,122,42)" shape-rendering="crispEdges"/>
  <path d="M191.7,515.1L494.3,511.4L290.4,505.2Z" fill="rgb(254,111,52)" shape-rendering="crispEdges"/>
  <path d="M142.1,516.9L494.3,511.4L191.7,515.1Z" fill="rgb(253,103,58)" shape-rendering="crispEdges"/>
  <path d="M2.1,522L494.3,511.4L142.1,516.9Z" fill="rgb(253,94,65)" shape-rendering="crispEdges"/>
  <path d="M524,255.5L520.6,-10.8L521.1,114.9Z" fill="rgb(253,113,52)" shape-rendering="crispEdges"/>
  <path d="M521.1,114.9L520.6,-10.8L507.2,24.2Z" fill="rgb(251,112,51)" shape-rendering="crispEdges"/>
  <path d="M507.2,24.2L520.6,-10.8L426.9,-9.5Z" fill="rgb(249,111,51)" shape-rendering="crispEdges"/>
  <path d="M472.5,-123.6L443.4,-128.1L426.9,-9.5Z" fill="rgb(249,111,51)" shape-rendering="crispEdges"/>
  <path d="M331.1,-87.6L443.4,-128.1L273.8,-103Z" fill="rgb(249,104,56)" shape-rendering="crispEdges"/>
  <path d="M273.8,-103L443.4,-128.1L-26.4,-120.4Z" fill="rgb(248,85,69)" shape-rendering="crispEdges"/>
  <path d="M520.6,-10.8L472.5,-123.6L426.9,-9.5Z" fill="rgb(249,111,51)" shape-rendering="crispEdges"/>
</svg>

