<svg
	xmlns="http://www.w3.org/2000/svg" width="400" height="400">
	<path d="M199.1,174L178.1,142.2L116.1,200Z" fill="rgb(17,17,22)" shape-rendering="crispEdges"></path>
	<path d="M178.1,142.2L131,119.9L116.1,200Z" fill="rgb(16,16,21)" shape-rendering="crispEdges"></path>
	<path d="M116.1,200L114.7,250.6L199.1,174Z" fill="rgb(17,17,21)" shape-rendering="crispEdges"></path>
	<path d="M49.6,123.6L64,217.2L116.1,200Z" fill="rgb(14,14,17)" shape-rendering="crispEdges"></path>
	<path d="M116.1,200L64,217.2L114.7,250.6Z" fill="rgb(15,15,19)" shape-rendering="crispEdges"></path>
	<path d="M227,273.2L254.7,217.1L199.1,174Z" fill="rgb(20,20,25)" shape-rendering="crispEdges"></path>
	<path d="M199.1,174L271.1,115.7L178.1,142.2Z" fill="rgb(19,19,24)" shape-rendering="crispEdges"></path>
	<path d="M114.7,250.6L227,273.2L199.1,174Z" fill="rgb(19,18,23)" shape-rendering="crispEdges"></path>
	<path d="M131,119.9L49.6,123.6L116.1,200Z" fill="rgb(15,14,18)" shape-rendering="crispEdges"></path>
	<path d="M254.7,217.1L271.1,115.7L199.1,174Z" fill="rgb(20,20,26)" shape-rendering="crispEdges"></path>
	<path d="M178.1,142.2L172.7,45L131,119.9Z" fill="rgb(17,16,21)" shape-rendering="crispEdges"></path>
	<path d="M271.1,115.7L172.7,45L178.1,142.2Z" fill="rgb(18,18,23)" shape-rendering="crispEdges"></path>
	<path d="M131,119.9L75,59.1L49.6,123.6Z" fill="rgb(14,13,16)" shape-rendering="crispEdges"></path>
	<path d="M227,273.2L251.1,282.8L254.7,217.1Z" fill="rgb(21,21,27)" shape-rendering="crispEdges"></path>
	<path d="M254.7,217.1L371.4,207.1L271.1,115.7Z" fill="rgb(22,22,28)" shape-rendering="crispEdges"></path>
	<path d="M189.4,329L251.1,282.8L227,273.2Z" fill="rgb(20,20,26)" shape-rendering="crispEdges"></path>
	<path d="M109.2,30.3L75,59.1L131,119.9Z" fill="rgb(14,14,17)" shape-rendering="crispEdges"></path>
	<path d="M64,217.2L69.2,300.9L114.7,250.6Z" fill="rgb(15,15,19)" shape-rendering="crispEdges"></path>
	<path d="M114.7,250.6L189.4,329L227,273.2Z" fill="rgb(19,19,24)" shape-rendering="crispEdges"></path>
	<path d="M-2,293.2L69.2,300.9L64,217.2Z" fill="rgb(14,13,17)" shape-rendering="crispEdges"></path>
	<path d="M69.2,300.9L189.4,329L114.7,250.6Z" fill="rgb(17,17,21)" shape-rendering="crispEdges"></path>
	<path d="M172.7,45L109.2,30.3L131,119.9Z" fill="rgb(15,15,19)" shape-rendering="crispEdges"></path>
	<path d="M271.1,115.7L268.1,59L172.7,45Z" fill="rgb(19,19,24)" shape-rendering="crispEdges"></path>
	<path d="M172.7,45L120.8,-5.4L109.2,30.3Z" fill="rgb(15,15,18)" shape-rendering="crispEdges"></path>
	<path d="M-7.7,117.3L-11.3,215.8L49.6,123.6Z" fill="rgb(11,10,12)" shape-rendering="crispEdges"></path>
	<path d="M49.6,123.6L-11.3,215.8L64,217.2Z" fill="rgb(12,12,15)" shape-rendering="crispEdges"></path>
	<path d="M-53.1,67.7L-7.7,117.3L75,59.1Z" fill="rgb(9,9,10)" shape-rendering="crispEdges"></path>
	<path d="M75,59.1L-7.7,117.3L49.6,123.6Z" fill="rgb(11,11,13)" shape-rendering="crispEdges"></path>
	<path d="M190.5,-28.1L120.8,-5.4L172.7,45Z" fill="rgb(16,15,20)" shape-rendering="crispEdges"></path>
	<path d="M109.2,30.3L35.1,-8.9L75,59.1Z" fill="rgb(12,12,14)" shape-rendering="crispEdges"></path>
	<path d="M-11.3,215.8L-2,293.2L64,217.2Z" fill="rgb(12,12,14)" shape-rendering="crispEdges"></path>
	<path d="M69.2,300.9L149.2,376L189.4,329Z" fill="rgb(18,18,23)" shape-rendering="crispEdges"></path>
	<path d="M53.9,362.5L149.2,376L69.2,300.9Z" fill="rgb(16,16,20)" shape-rendering="crispEdges"></path>
	<path d="M189.4,329L273.4,351.1L251.1,282.8Z" fill="rgb(21,21,27)" shape-rendering="crispEdges"></path>
	<path d="M215.1,410.3L273.4,351.1L189.4,329Z" fill="rgb(21,21,27)" shape-rendering="crispEdges"></path>
	<path d="M360.8,282.3L371.4,207.1L254.7,217.1Z" fill="rgb(23,23,31)" shape-rendering="crispEdges"></path>
	<path d="M-2,293.2L53.9,362.5L69.2,300.9Z" fill="rgb(14,14,17)" shape-rendering="crispEdges"></path>
	<path d="M268.1,59L261.3,-1.9L172.7,45Z" fill="rgb(19,18,24)" shape-rendering="crispEdges"></path>
	<path d="M261.3,-1.9L190.5,-28.1L172.7,45Z" fill="rgb(18,17,22)" shape-rendering="crispEdges"></path>
	<path d="M360.8,282.3L254.7,217.1L251.1,282.8Z" fill="rgb(22,22,29)" shape-rendering="crispEdges"></path>
	<path d="M271.1,115.7L325.3,33.5L268.1,59Z" fill="rgb(21,20,27)" shape-rendering="crispEdges"></path>
	<path d="M268.1,59L325.3,33.5L261.3,-1.9Z" fill="rgb(20,20,26)" shape-rendering="crispEdges"></path>
	<path d="M109.2,-78.3L35.1,-8.9L120.8,-5.4Z" fill="rgb(13,12,15)" shape-rendering="crispEdges"></path>
	<path d="M120.8,-5.4L35.1,-8.9L109.2,30.3Z" fill="rgb(13,12,15)" shape-rendering="crispEdges"></path>
	<path d="M371.4,207.1L375.5,137.3L271.1,115.7Z" fill="rgb(23,23,30)" shape-rendering="crispEdges"></path>
	<path d="M375.5,137.3L325.3,33.5L271.1,115.7Z" fill="rgb(22,22,29)" shape-rendering="crispEdges"></path>
	<path d="M328.6,340.4L360.8,282.3L251.1,282.8Z" fill="rgb(23,23,31)" shape-rendering="crispEdges"></path>
	<path d="M335.1,410.8L328.6,340.4L273.4,351.1Z" fill="rgb(23,23,31)" shape-rendering="crispEdges"></path>
	<path d="M273.4,351.1L328.6,340.4L251.1,282.8Z" fill="rgb(22,22,29)" shape-rendering="crispEdges"></path>
	<path d="M35.1,-8.9L-53.1,67.7L75,59.1Z" fill="rgb(10,9,11)" shape-rendering="crispEdges"></path>
	<path d="M-7.7,117.3L-81.3,194.4L-11.3,215.8Z" fill="rgb(10,10,12)" shape-rendering="crispEdges"></path>
	<path d="M-11.3,215.8L-94.9,272.7L-2,293.2Z" fill="rgb(11,11,13)" shape-rendering="crispEdges"></path>
	<path d="M-112.6,113.5L-81.3,194.4L-7.7,117.3Z" fill="rgb(10,10,11)" shape-rendering="crispEdges"></path>
	<path d="M117.2,450.4L215.1,410.3L149.2,376Z" fill="rgb(19,19,24)" shape-rendering="crispEdges"></path>
	<path d="M149.2,376L215.1,410.3L189.4,329Z" fill="rgb(20,20,25)" shape-rendering="crispEdges"></path>
	<path d="M-23.4,400.1L52.9,408.8L53.9,362.5Z" fill="rgb(14,14,17)" shape-rendering="crispEdges"></path>
	<path d="M53.9,362.5L52.9,408.8L149.2,376Z" fill="rgb(16,16,21)" shape-rendering="crispEdges"></path>
	<path d="M-52.1,369.9L53.9,362.5L-2,293.2Z" fill="rgb(12,12,15)" shape-rendering="crispEdges"></path>
	<path d="M190.5,-28.1L109.2,-78.3L120.8,-5.4Z" fill="rgb(15,15,18)" shape-rendering="crispEdges"></path>
	<path d="M35.1,-8.9L-72.9,36.5L-53.1,67.7Z" fill="rgb(8,8,9)" shape-rendering="crispEdges"></path>
	<path d="M183.8,-81.8L109.2,-78.3L190.5,-28.1Z" fill="rgb(16,15,19)" shape-rendering="crispEdges"></path>
	<path d="M299.7,-77.8L190.5,-28.1L261.3,-1.9Z" fill="rgb(19,19,24)" shape-rendering="crispEdges"></path>
	<path d="M299.7,-77.8L183.8,-81.8L190.5,-28.1Z" fill="rgb(18,18,23)" shape-rendering="crispEdges"></path>
	<path d="M-81.3,194.4L-94.9,272.7L-11.3,215.8Z" fill="rgb(11,11,13)" shape-rendering="crispEdges"></path>
	<path d="M-24.8,-47.4L-72.9,36.5L35.1,-8.9Z" fill="rgb(8,8,8)" shape-rendering="crispEdges"></path>
	<path d="M-53.1,67.7L-112.6,113.5L-7.7,117.3Z" fill="rgb(9,9,10)" shape-rendering="crispEdges"></path>
	<path d="M-81.3,194.4L-112.6,113.5L-94.9,272.7Z" fill="rgb(11,10,12)" shape-rendering="crispEdges"></path>
	<path d="M52.9,408.8L117.2,450.4L149.2,376Z" fill="rgb(17,17,22)" shape-rendering="crispEdges"></path>
	<path d="M-72.9,36.5L-112.6,113.5L-53.1,67.7Z" fill="rgb(9,9,10)" shape-rendering="crispEdges"></path>
	<path d="M-101.8,339.4L-52.1,369.9L-2,293.2Z" fill="rgb(12,12,15)" shape-rendering="crispEdges"></path>
	<path d="M52.9,502.7L124.9,508.2L117.2,450.4Z" fill="rgb(17,17,21)" shape-rendering="crispEdges"></path>
	<path d="M-52.1,369.9L-23.4,400.1L53.9,362.5Z" fill="rgb(13,13,15)" shape-rendering="crispEdges"></path>
	<path d="M41.3,-111.7L-24.8,-47.4L35.1,-8.9Z" fill="rgb(9,9,10)" shape-rendering="crispEdges"></path>
	<path d="M419.7,361.4L433.2,268.1L360.8,282.3Z" fill="rgb(25,25,35)" shape-rendering="crispEdges"></path>
	<path d="M360.8,282.3L433.2,268.1L371.4,207.1Z" fill="rgb(25,25,34)" shape-rendering="crispEdges"></path>
	<path d="M371.4,207.1L446.4,144.9L375.5,137.3Z" fill="rgb(24,24,33)" shape-rendering="crispEdges"></path>
	<path d="M290.3,451.7L335.1,410.8L273.4,351.1Z" fill="rgb(23,23,31)" shape-rendering="crispEdges"></path>
	<path d="M328.6,340.4L419.7,361.4L360.8,282.3Z" fill="rgb(25,25,34)" shape-rendering="crispEdges"></path>
	<path d="M290.3,451.7L273.4,351.1L215.1,410.3Z" fill="rgb(22,22,29)" shape-rendering="crispEdges"></path>
	<path d="M451.7,206.9L446.4,144.9L371.4,207.1Z" fill="rgb(25,25,33)" shape-rendering="crispEdges"></path>
	<path d="M375.5,137.3L430.8,23.3L325.3,33.5Z" fill="rgb(23,23,31)" shape-rendering="crispEdges"></path>
	<path d="M350.7,-48.3L261.3,-1.9L325.3,33.5Z" fill="rgb(21,21,27)" shape-rendering="crispEdges"></path>
	<path d="M350.7,-48.3L299.7,-77.8L261.3,-1.9Z" fill="rgb(21,20,26)" shape-rendering="crispEdges"></path>
	<path d="M433.2,268.1L451.7,206.9L371.4,207.1Z" fill="rgb(25,25,34)" shape-rendering="crispEdges"></path>
	<path d="M430.8,23.3L350.7,-48.3L325.3,33.5Z" fill="rgb(22,22,30)" shape-rendering="crispEdges"></path>
	<path d="M-24.8,-47.4L-74.6,-15.3L-72.9,36.5Z" fill="rgb(8,8,8)" shape-rendering="crispEdges"></path>
	<path d="M-72.9,36.5L-74.6,-15.3L-112.6,113.5Z" fill="rgb(9,9,9)" shape-rendering="crispEdges"></path>
	<path d="M-112.6,113.5L-101.8,339.4L-94.9,272.7Z" fill="rgb(11,11,13)" shape-rendering="crispEdges"></path>
	<path d="M-94.9,272.7L-101.8,339.4L-2,293.2Z" fill="rgb(12,12,14)" shape-rendering="crispEdges"></path>
	<path d="M-122.9,429.5L-40.7,495.4L-23.4,400.1Z" fill="rgb(13,13,16)" shape-rendering="crispEdges"></path>
	<path d="M187.5,485.1L290.3,451.7L215.1,410.3Z" fill="rgb(21,21,28)" shape-rendering="crispEdges"></path>
	<path d="M117.2,450.4L187.5,485.1L215.1,410.3Z" fill="rgb(20,19,25)" shape-rendering="crispEdges"></path>
	<path d="M124.9,508.2L187.5,485.1L117.2,450.4Z" fill="rgb(19,18,24)" shape-rendering="crispEdges"></path>
	<path d="M109.2,-78.3L41.3,-111.7L35.1,-8.9Z" fill="rgb(11,11,13)" shape-rendering="crispEdges"></path>
	<path d="M-24.8,-47.4L-76.1,-96.5L-74.6,-15.3Z" fill="rgb(8,8,8)" shape-rendering="crispEdges"></path>
	<path d="M183.8,-81.8L41.3,-111.7L109.2,-78.3Z" fill="rgb(14,13,17)" shape-rendering="crispEdges"></path>
	<path d="M356.1,-98.5L41.3,-111.7L183.8,-81.8Z" fill="rgb(17,17,21)" shape-rendering="crispEdges"></path>
	<path d="M446.4,144.9L430.8,23.3L375.5,137.3Z" fill="rgb(24,24,32)" shape-rendering="crispEdges"></path>
	<path d="M335.1,410.8L419.7,361.4L328.6,340.4Z" fill="rgb(25,25,34)" shape-rendering="crispEdges"></path>
	<path d="M433.2,268.1L497.9,298.4L451.7,206.9Z" fill="rgb(25,25,34)" shape-rendering="crispEdges"></path>
	<path d="M419.6,431.1L419.7,361.4L335.1,410.8Z" fill="rgb(26,26,36)" shape-rendering="crispEdges"></path>
	<path d="M187.5,485.1L257.1,517.4L290.3,451.7Z" fill="rgb(22,22,28)" shape-rendering="crispEdges"></path>
	<path d="M52.9,502.7L117.2,450.4L52.9,408.8Z" fill="rgb(16,16,20)" shape-rendering="crispEdges"></path>
	<path d="M41.3,-111.7L-13.1,-109.5L-24.8,-47.4Z" fill="rgb(8,8,8)" shape-rendering="crispEdges"></path>
	<path d="M-40.7,495.4L52.9,408.8L-23.4,400.1Z" fill="rgb(13,13,16)" shape-rendering="crispEdges"></path>
	<path d="M-40.7,495.4L52.9,502.7L52.9,408.8Z" fill="rgb(14,14,17)" shape-rendering="crispEdges"></path>
	<path d="M404.6,-96.2L356.1,-98.5L350.7,-48.3Z" fill="rgb(23,22,30)" shape-rendering="crispEdges"></path>
	<path d="M350.7,-48.3L356.1,-98.5L299.7,-77.8Z" fill="rgb(22,21,28)" shape-rendering="crispEdges"></path>
	<path d="M299.7,-77.8L356.1,-98.5L183.8,-81.8Z" fill="rgb(20,20,25)" shape-rendering="crispEdges"></path>
	<path d="M446.4,144.9L484,74.4L430.8,23.3Z" fill="rgb(24,24,32)" shape-rendering="crispEdges"></path>
	<path d="M430.8,23.3L424.1,-49.7L350.7,-48.3Z" fill="rgb(23,23,31)" shape-rendering="crispEdges"></path>
	<path d="M520.2,141.4L484,74.4L446.4,144.9Z" fill="rgb(24,24,33)" shape-rendering="crispEdges"></path>
	<path d="M521.8,188L446.4,144.9L451.7,206.9Z" fill="rgb(25,24,33)" shape-rendering="crispEdges"></path>
	<path d="M124.9,508.2L257.1,517.4L187.5,485.1Z" fill="rgb(20,20,26)" shape-rendering="crispEdges"></path>
	<path d="M290.3,451.7L354.1,484.8L335.1,410.8Z" fill="rgb(24,24,32)" shape-rendering="crispEdges"></path>
	<path d="M501.2,-13.5L424.1,-49.7L430.8,23.3Z" fill="rgb(23,23,31)" shape-rendering="crispEdges"></path>
	<path d="M-13.1,-109.5L-76.1,-96.5L-24.8,-47.4Z" fill="rgb(8,8,8)" shape-rendering="crispEdges"></path>
	<path d="M-74.6,-15.3L-76.1,-96.5L-112.6,113.5Z" fill="rgb(8,8,8)" shape-rendering="crispEdges"></path>
	<path d="M522.8,368.6L497.9,298.4L419.7,361.4Z" fill="rgb(26,26,35)" shape-rendering="crispEdges"></path>
	<path d="M419.7,361.4L497.9,298.4L433.2,268.1Z" fill="rgb(25,25,35)" shape-rendering="crispEdges"></path>
	<path d="M257.1,517.4L354.1,484.8L290.3,451.7Z" fill="rgb(23,23,31)" shape-rendering="crispEdges"></path>
	<path d="M354.1,484.8L419.6,431.1L335.1,410.8Z" fill="rgb(25,25,34)" shape-rendering="crispEdges"></path>
	<path d="M497.9,298.4L521.8,188L451.7,206.9Z" fill="rgb(25,25,34)" shape-rendering="crispEdges"></path>
	<path d="M521.8,188L520.2,141.4L446.4,144.9Z" fill="rgb(24,24,33)" shape-rendering="crispEdges"></path>
	<path d="M499,-122.4L404.6,-96.2L424.1,-49.7Z" fill="rgb(23,23,31)" shape-rendering="crispEdges"></path>
	<path d="M-122.9,429.5L-23.4,400.1L-52.1,369.9Z" fill="rgb(13,13,16)" shape-rendering="crispEdges"></path>
	<path d="M501.2,-13.5L430.8,23.3L484,74.4Z" fill="rgb(23,23,31)" shape-rendering="crispEdges"></path>
	<path d="M424.1,-49.7L404.6,-96.2L350.7,-48.3Z" fill="rgb(23,23,31)" shape-rendering="crispEdges"></path>
	<path d="M-101.8,339.4L-122.9,429.5L-52.1,369.9Z" fill="rgb(13,13,15)" shape-rendering="crispEdges"></path>
	<path d="M-112.6,113.5L-122.9,429.5L-101.8,339.4Z" fill="rgb(12,12,14)" shape-rendering="crispEdges"></path>
	<path d="M520.2,141.4L501.2,-13.5L484,74.4Z" fill="rgb(24,24,32)" shape-rendering="crispEdges"></path>
	<path d="M521.3,405.2L522.8,368.6L419.7,361.4Z" fill="rgb(26,26,36)" shape-rendering="crispEdges"></path>
	<path d="M497.9,298.4L522.8,368.6L521.8,188Z" fill="rgb(25,25,35)" shape-rendering="crispEdges"></path>
	<path d="M521.3,405.2L419.7,361.4L419.6,431.1Z" fill="rgb(26,26,36)" shape-rendering="crispEdges"></path>
	<path d="M-122.9,429.5L-117.9,499.3L-40.7,495.4Z" fill="rgb(13,13,16)" shape-rendering="crispEdges"></path>
	<path d="M-40.7,495.4L-117.9,499.3L52.9,502.7Z" fill="rgb(13,13,16)" shape-rendering="crispEdges"></path>
	<path d="M52.9,502.7L-117.9,499.3L124.9,508.2Z" fill="rgb(14,14,17)" shape-rendering="crispEdges"></path>
	<path d="M124.9,508.2L-117.9,499.3L257.1,517.4Z" fill="rgb(17,16,21)" shape-rendering="crispEdges"></path>
	<path d="M257.1,517.4L410.7,523.4L354.1,484.8Z" fill="rgb(24,24,33)" shape-rendering="crispEdges"></path>
	<path d="M354.1,484.8L410.7,523.4L419.6,431.1Z" fill="rgb(26,26,36)" shape-rendering="crispEdges"></path>
	<path d="M500.6,474.9L521.3,405.2L419.6,431.1Z" fill="rgb(26,26,36)" shape-rendering="crispEdges"></path>
	<path d="M410.7,523.4L500.6,474.9L419.6,431.1Z" fill="rgb(26,26,36)" shape-rendering="crispEdges"></path>
	<path d="M520.2,141.4L499,-122.4L501.2,-13.5Z" fill="rgb(23,23,31)" shape-rendering="crispEdges"></path>
	<path d="M501.2,-13.5L499,-122.4L424.1,-49.7Z" fill="rgb(23,23,31)" shape-rendering="crispEdges"></path>
	<path d="M404.6,-96.2L499,-122.4L356.1,-98.5Z" fill="rgb(23,23,31)" shape-rendering="crispEdges"></path>
	<path d="M356.1,-98.5L499,-122.4L41.3,-111.7Z" fill="rgb(21,20,26)" shape-rendering="crispEdges"></path>
</svg>
