<svg
    xmlns="http://www.w3.org/2000/svg" width="500" height="500">
    <path d="M240.3,280.7L277.4,236.2L229.7,229.1Z" fill="rgb(253,96,62)" shape-rendering="crispEdges"></path>
    <path d="M240.3,280.7L298.7,279.7L277.4,236.2Z" fill="rgb(253,100,59)" shape-rendering="crispEdges"></path>
    <path d="M298.7,279.7L327.2,264.1L277.4,236.2Z" fill="rgb(253,105,57)" shape-rendering="crispEdges"></path>
    <path d="M229.7,229.1L173.9,274.5L240.3,280.7Z" fill="rgb(253,92,66)" shape-rendering="crispEdges"></path>
    <path d="M229.7,229.1L171.4,236.6L173.9,274.5Z" fill="rgb(253,88,69)" shape-rendering="crispEdges"></path>
    <path d="M302.2,174.7L229.7,229.1L277.4,236.2Z" fill="rgb(253,97,62)" shape-rendering="crispEdges"></path>
    <path d="M302.2,174.7L216.2,170.6L229.7,229.1Z" fill="rgb(253,93,65)" shape-rendering="crispEdges"></path>
    <path d="M229.7,229.1L216.2,170.6L171.4,236.6Z" fill="rgb(253,88,69)" shape-rendering="crispEdges"></path>
    <path d="M355.9,213L302.2,174.7L277.4,236.2Z" fill="rgb(253,103,58)" shape-rendering="crispEdges"></path>
    <path d="M355.9,213L319.1,169.6L302.2,174.7Z" fill="rgb(253,104,58)" shape-rendering="crispEdges"></path>
    <path d="M302.2,174.7L206.8,120.5L216.2,170.6Z" fill="rgb(253,89,68)" shape-rendering="crispEdges"></path>
    <path d="M327.2,264.1L355.9,213L277.4,236.2Z" fill="rgb(253,106,56)" shape-rendering="crispEdges"></path>
    <path d="M173.9,274.5L219.2,359.5L240.3,280.7Z" fill="rgb(253,95,64)" shape-rendering="crispEdges"></path>
    <path d="M240.3,280.7L290.6,361.9L298.7,279.7Z" fill="rgb(253,104,57)" shape-rendering="crispEdges"></path>
    <path d="M298.7,279.7L341.4,342.9L327.2,264.1Z" fill="rgb(254,110,53)" shape-rendering="crispEdges"></path>
    <path d="M219.2,359.5L290.6,361.9L240.3,280.7Z" fill="rgb(253,102,59)" shape-rendering="crispEdges"></path>
    <path d="M327.2,264.1L377.6,293L355.9,213Z" fill="rgb(254,112,51)" shape-rendering="crispEdges"></path>
    <path d="M290.6,361.9L341.4,342.9L298.7,279.7Z" fill="rgb(254,110,52)" shape-rendering="crispEdges"></path>
    <path d="M216.2,170.6L141.5,180.2L171.4,236.6Z" fill="rgb(253,83,73)" shape-rendering="crispEdges"></path>
    <path d="M171.4,236.6L114.8,284.8L173.9,274.5Z" fill="rgb(253,84,72)" shape-rendering="crispEdges"></path>
    <path d="M341.4,342.9L377.6,293L327.2,264.1Z" fill="rgb(254,114,49)" shape-rendering="crispEdges"></path>
    <path d="M114.1,340.7L164.8,358.4L173.9,274.5Z" fill="rgb(253,88,70)" shape-rendering="crispEdges"></path>
    <path d="M173.9,274.5L164.8,358.4L219.2,359.5Z" fill="rgb(253,93,66)" shape-rendering="crispEdges"></path>
    <path d="M219.2,359.5L225.4,405.2L290.6,361.9Z" fill="rgb(253,104,57)" shape-rendering="crispEdges"></path>
    <path d="M293.9,88.5L206.8,120.5L302.2,174.7Z" fill="rgb(253,92,66)" shape-rendering="crispEdges"></path>
    <path d="M216.2,170.6L206.8,120.5L141.5,180.2Z" fill="rgb(253,82,73)" shape-rendering="crispEdges"></path>
    <path d="M110.1,231.6L114.8,284.8L171.4,236.6Z" fill="rgb(252,80,75)" shape-rendering="crispEdges"></path>
    <path d="M141.5,180.2L110.1,231.6L171.4,236.6Z" fill="rgb(252,79,75)" shape-rendering="crispEdges"></path>
    <path d="M164.8,358.4L182.2,380.9L219.2,359.5Z" fill="rgb(253,96,65)" shape-rendering="crispEdges"></path>
    <path d="M341.4,342.9L379.7,325.3L377.6,293Z" fill="rgb(254,118,46)" shape-rendering="crispEdges"></path>
    <path d="M157,86.8L122.2,169.9L141.5,180.2Z" fill="rgb(252,74,79)" shape-rendering="crispEdges"></path>
    <path d="M141.5,180.2L122.2,169.9L110.1,231.6Z" fill="rgb(252,75,78)" shape-rendering="crispEdges"></path>
    <path d="M182.2,380.9L225.4,405.2L219.2,359.5Z" fill="rgb(253,100,62)" shape-rendering="crispEdges"></path>
    <path d="M290.6,361.9L326,394.4L341.4,342.9Z" fill="rgb(254,114,50)" shape-rendering="crispEdges"></path>
    <path d="M341.4,342.9L394.1,397.8L379.7,325.3Z" fill="rgb(254,120,44)" shape-rendering="crispEdges"></path>
    <path d="M263.3,422.1L326,394.4L290.6,361.9Z" fill="rgb(254,112,52)" shape-rendering="crispEdges"></path>
    <path d="M164.8,358.4L83.2,403.6L182.2,380.9Z" fill="rgb(253,91,69)" shape-rendering="crispEdges"></path>
    <path d="M114.8,284.8L114.1,340.7L173.9,274.5Z" fill="rgb(253,84,73)" shape-rendering="crispEdges"></path>
    <path d="M46.7,285.5L114.1,340.7L114.8,284.8Z" fill="rgb(248,82,73)" shape-rendering="crispEdges"></path>
    <path d="M388.8,143.9L327.9,104.9L319.1,169.6Z" fill="rgb(254,105,59)" shape-rendering="crispEdges"></path>
    <path d="M319.1,169.6L327.9,104.9L302.2,174.7Z" fill="rgb(253,101,61)" shape-rendering="crispEdges"></path>
    <path d="M388.8,143.9L319.1,169.6L355.9,213Z" fill="rgb(254,108,56)" shape-rendering="crispEdges"></path>
    <path d="M327.9,104.9L293.9,88.5L302.2,174.7Z" fill="rgb(253,98,63)" shape-rendering="crispEdges"></path>
    <path d="M225.4,405.2L263.3,422.1L290.6,361.9Z" fill="rgb(254,107,55)" shape-rendering="crispEdges"></path>
    <path d="M453.8,232.5L420,225.1L455.4,274.1Z" fill="rgb(254,125,45)" shape-rendering="crispEdges"></path>
    <path d="M377.6,293L420,225.1L355.9,213Z" fill="rgb(254,116,49)" shape-rendering="crispEdges"></path>
    <path d="M420,225.1L388.8,143.9L355.9,213Z" fill="rgb(254,114,52)" shape-rendering="crispEdges"></path>
    <path d="M206.8,120.5L157,86.8L141.5,180.2Z" fill="rgb(252,77,76)" shape-rendering="crispEdges"></path>
    <path d="M198.2,50.6L157,86.8L206.8,120.5Z" fill="rgb(250,79,74)" shape-rendering="crispEdges"></path>
    <path d="M122.2,169.9L60.4,215.7L110.1,231.6Z" fill="rgb(249,75,76)" shape-rendering="crispEdges"></path>
    <path d="M110.1,231.6L46.7,285.5L114.8,284.8Z" fill="rgb(248,79,74)" shape-rendering="crispEdges"></path>
    <path d="M18.9,164.5L60.4,215.7L122.2,169.9Z" fill="rgb(245,72,76)" shape-rendering="crispEdges"></path>
    <path d="M182.2,380.9L226.8,447.9L225.4,405.2Z" fill="rgb(253,102,61)" shape-rendering="crispEdges"></path>
    <path d="M225.4,405.2L226.8,447.9L263.3,422.1Z" fill="rgb(254,106,57)" shape-rendering="crispEdges"></path>
    <path d="M341,471.2L394.1,397.8L326,394.4Z" fill="rgb(254,122,43)" shape-rendering="crispEdges"></path>
    <path d="M158.9,480.6L226.8,447.9L182.2,380.9Z" fill="rgb(254,101,63)" shape-rendering="crispEdges"></path>
    <path d="M455.4,274.1L420,225.1L377.6,293Z" fill="rgb(254,122,45)" shape-rendering="crispEdges"></path>
    <path d="M476.8,155.7L421.3,119.4L388.8,143.9Z" fill="rgb(254,118,52)" shape-rendering="crispEdges"></path>
    <path d="M455.4,274.1L377.6,293L379.7,325.3Z" fill="rgb(254,122,44)" shape-rendering="crispEdges"></path>
    <path d="M341,471.2L326,394.4L263.3,422.1Z" fill="rgb(254,117,49)" shape-rendering="crispEdges"></path>
    <path d="M326,394.4L394.1,397.8L341.4,342.9Z" fill="rgb(254,119,45)" shape-rendering="crispEdges"></path>
    <path d="M455.5,360.5L455.4,274.1L379.7,325.3Z" fill="rgb(254,127,41)" shape-rendering="crispEdges"></path>
    <path d="M60.4,215.7L46.7,285.5L110.1,231.6Z" fill="rgb(246,76,74)" shape-rendering="crispEdges"></path>
    <path d="M114.1,340.7L83.2,403.6L164.8,358.4Z" fill="rgb(252,87,71)" shape-rendering="crispEdges"></path>
    <path d="M293.9,88.5L198.2,50.6L206.8,120.5Z" fill="rgb(251,86,69)" shape-rendering="crispEdges"></path>
    <path d="M198.2,50.6L174.3,51.3L157,86.8Z" fill="rgb(249,77,75)" shape-rendering="crispEdges"></path>
    <path d="M157,86.8L82.6,108.2L122.2,169.9Z" fill="rgb(251,70,81)" shape-rendering="crispEdges"></path>
    <path d="M476.8,155.7L388.8,143.9L420,225.1Z" fill="rgb(254,119,50)" shape-rendering="crispEdges"></path>
    <path d="M388.8,143.9L421.3,119.4L327.9,104.9Z" fill="rgb(254,109,56)" shape-rendering="crispEdges"></path>
    <path d="M322.6,20.2L288.7,21.3L293.9,88.5Z" fill="rgb(249,96,62)" shape-rendering="crispEdges"></path>
    <path d="M293.9,88.5L288.7,21.3L198.2,50.6Z" fill="rgb(249,89,66)" shape-rendering="crispEdges"></path>
    <path d="M89.1,26.8L82.6,108.2L157,86.8Z" fill="rgb(247,69,80)" shape-rendering="crispEdges"></path>
    <path d="M59.5,381.1L83.2,403.6L114.1,340.7Z" fill="rgb(248,87,70)" shape-rendering="crispEdges"></path>
    <path d="M46.7,285.5L39.4,333.1L114.1,340.7Z" fill="rgb(245,82,71)" shape-rendering="crispEdges"></path>
    <path d="M267.3,508.8L269.6,480.9L226.8,447.9Z" fill="rgb(254,112,54)" shape-rendering="crispEdges"></path>
    <path d="M226.8,447.9L269.6,480.9L263.3,422.1Z" fill="rgb(254,110,55)" shape-rendering="crispEdges"></path>
    <path d="M39.4,333.1L59.5,381.1L114.1,340.7Z" fill="rgb(246,84,70)" shape-rendering="crispEdges"></path>
    <path d="M456.2,384.3L455.5,360.5L394.1,397.8Z" fill="rgb(254,131,37)" shape-rendering="crispEdges"></path>
    <path d="M394.1,397.8L455.5,360.5L379.7,325.3Z" fill="rgb(254,126,40)" shape-rendering="crispEdges"></path>
    <path d="M322.6,20.2L293.9,88.5L327.9,104.9Z" fill="rgb(250,98,61)" shape-rendering="crispEdges"></path>
    <path d="M198.2,50.6L203.6,-22.6L174.3,51.3Z" fill="rgb(247,79,73)" shape-rendering="crispEdges"></path>
    <path d="M269.6,480.9L341,471.2L263.3,422.1Z" fill="rgb(254,116,50)" shape-rendering="crispEdges"></path>
    <path d="M400,28L322.6,20.2L327.9,104.9Z" fill="rgb(249,103,58)" shape-rendering="crispEdges"></path>
    <path d="M415,444.6L456.2,384.3L394.1,397.8Z" fill="rgb(254,131,37)" shape-rendering="crispEdges"></path>
    <path d="M525.2,259.8L453.8,232.5L455.4,274.1Z" fill="rgb(255,131,41)" shape-rendering="crispEdges"></path>
    <path d="M46.2,454.5L116.5,456.4L83.2,403.6Z" fill="rgb(248,91,69)" shape-rendering="crispEdges"></path>
    <path d="M83.2,403.6L116.5,456.4L182.2,380.9Z" fill="rgb(253,91,70)" shape-rendering="crispEdges"></path>
    <path d="M518,171.2L476.8,155.7L453.8,232.5Z" fill="rgb(255,128,46)" shape-rendering="crispEdges"></path>
    <path d="M453.8,232.5L476.8,155.7L420,225.1Z" fill="rgb(254,124,47)" shape-rendering="crispEdges"></path>
    <path d="M421.3,119.4L400,28L327.9,104.9Z" fill="rgb(252,109,55)" shape-rendering="crispEdges"></path>
    <path d="M498.9,325.4L455.4,274.1L455.5,360.5Z" fill="rgb(255,133,38)" shape-rendering="crispEdges"></path>
    <path d="M116.5,456.4L158.9,480.6L182.2,380.9Z" fill="rgb(253,97,67)" shape-rendering="crispEdges"></path>
    <path d="M82.6,108.2L18.9,164.5L122.2,169.9Z" fill="rgb(246,70,78)" shape-rendering="crispEdges"></path>
    <path d="M-28.7,221.7L-21.8,296.1L46.7,285.5Z" fill="rgb(236,75,70)" shape-rendering="crispEdges"></path>
    <path d="M46.7,285.5L-21.8,296.1L39.4,333.1Z" fill="rgb(239,79,70)" shape-rendering="crispEdges"></path>
    <path d="M341,471.2L415,444.6L394.1,397.8Z" fill="rgb(254,127,39)" shape-rendering="crispEdges"></path>
    <path d="M32.1,36.1L37.7,111.3L82.6,108.2Z" fill="rgb(240,67,77)" shape-rendering="crispEdges"></path>
    <path d="M82.6,108.2L37.7,111.3L18.9,164.5Z" fill="rgb(242,68,78)" shape-rendering="crispEdges"></path>
    <path d="M476.8,155.7L469.1,117.1L421.3,119.4Z" fill="rgb(255,121,51)" shape-rendering="crispEdges"></path>
    <path d="M269.6,480.9L320.4,501.8L341,471.2Z" fill="rgb(254,120,47)" shape-rendering="crispEdges"></path>
    <path d="M341,471.2L414.4,521.2L415,444.6Z" fill="rgb(254,131,37)" shape-rendering="crispEdges"></path>
    <path d="M198.2,527.5L267.3,508.8L226.8,447.9Z" fill="rgb(254,110,57)" shape-rendering="crispEdges"></path>
    <path d="M542.1,389.8L498.9,325.4L456.2,384.3Z" fill="rgb(255,140,31)" shape-rendering="crispEdges"></path>
    <path d="M456.2,384.3L498.9,325.4L455.5,360.5Z" fill="rgb(255,135,35)" shape-rendering="crispEdges"></path>
    <path d="M267.3,508.8L320.4,501.8L269.6,480.9Z" fill="rgb(254,118,50)" shape-rendering="crispEdges"></path>
    <path d="M455.8,26.5L400,28L421.3,119.4Z" fill="rgb(250,115,52)" shape-rendering="crispEdges"></path>
    <path d="M349.2,-18.2L296.5,-13.8L322.6,20.2Z" fill="rgb(246,98,59)" shape-rendering="crispEdges"></path>
    <path d="M322.6,20.2L296.5,-13.8L288.7,21.3Z" fill="rgb(247,95,62)" shape-rendering="crispEdges"></path>
    <path d="M288.7,21.3L203.6,-22.6L198.2,50.6Z" fill="rgb(247,84,68)" shape-rendering="crispEdges"></path>
    <path d="M174.3,51.3L89.1,26.8L157,86.8Z" fill="rgb(248,71,78)" shape-rendering="crispEdges"></path>
    <path d="M498.9,325.4L525.2,259.8L455.4,274.1Z" fill="rgb(255,135,38)" shape-rendering="crispEdges"></path>
    <path d="M476.8,155.7L525.6,115.8L469.1,117.1Z" fill="rgb(255,127,49)" shape-rendering="crispEdges"></path>
    <path d="M-28.7,221.7L46.7,285.5L60.4,215.7Z" fill="rgb(240,74,72)" shape-rendering="crispEdges"></path>
    <path d="M39.4,333.1L-9.1,350.4L59.5,381.1Z" fill="rgb(241,83,68)" shape-rendering="crispEdges"></path>
    <path d="M59.5,381.1L46.2,454.5L83.2,403.6Z" fill="rgb(245,89,68)" shape-rendering="crispEdges"></path>
    <path d="M179.8,-38.9L89.1,26.8L174.3,51.3Z" fill="rgb(246,72,77)" shape-rendering="crispEdges"></path>
    <path d="M-21.8,296.1L-9.1,350.4L39.4,333.1Z" fill="rgb(237,80,68)" shape-rendering="crispEdges"></path>
    <path d="M296.5,-13.8L203.6,-22.6L288.7,21.3Z" fill="rgb(246,89,65)" shape-rendering="crispEdges"></path>
    <path d="M533.3,211.5L518,171.2L453.8,232.5Z" fill="rgb(255,132,43)" shape-rendering="crispEdges"></path>
    <path d="M469.1,117.1L455.8,26.5L421.3,119.4Z" fill="rgb(252,119,51)" shape-rendering="crispEdges"></path>
    <path d="M158.5,522.1L198.2,527.5L158.9,480.6Z" fill="rgb(254,104,64)" shape-rendering="crispEdges"></path>
    <path d="M158.9,480.6L198.2,527.5L226.8,447.9Z" fill="rgb(254,105,61)" shape-rendering="crispEdges"></path>
    <path d="M348.3,572.2L414.4,521.2L320.4,501.8Z" fill="rgb(254,128,40)" shape-rendering="crispEdges"></path>
    <path d="M158.5,522.1L158.9,480.6L78.3,514.8Z" fill="rgb(254,99,68)" shape-rendering="crispEdges"></path>
    <path d="M-12.3,152.5L-28.7,221.7L18.9,164.5Z" fill="rgb(236,70,74)" shape-rendering="crispEdges"></path>
    <path d="M18.9,164.5L-28.7,221.7L60.4,215.7Z" fill="rgb(238,72,74)" shape-rendering="crispEdges"></path>
    <path d="M1.2,107.9L-12.3,152.5L18.9,164.5Z" fill="rgb(236,67,76)" shape-rendering="crispEdges"></path>
    <path d="M1.2,107.9L18.9,164.5L37.7,111.3Z" fill="rgb(238,67,77)" shape-rendering="crispEdges"></path>
    <path d="M525.2,259.8L533.3,211.5L453.8,232.5Z" fill="rgb(255,133,41)" shape-rendering="crispEdges"></path>
    <path d="M78.3,514.8L158.9,480.6L116.5,456.4Z" fill="rgb(253,96,69)" shape-rendering="crispEdges"></path>
    <path d="M400,28L349.2,-18.2L322.6,20.2Z" fill="rgb(247,104,56)" shape-rendering="crispEdges"></path>
    <path d="M199.1,-64.3L179.8,-38.9L203.6,-22.6Z" fill="rgb(246,79,72)" shape-rendering="crispEdges"></path>
    <path d="M32.1,36.1L1.2,107.9L37.7,111.3Z" fill="rgb(237,66,76)" shape-rendering="crispEdges"></path>
    <path d="M-3.2,403.4L46.2,454.5L59.5,381.1Z" fill="rgb(241,88,67)" shape-rendering="crispEdges"></path>
    <path d="M441.2,512.4L468.7,448.1L415,444.6Z" fill="rgb(255,138,32)" shape-rendering="crispEdges"></path>
    <path d="M415,444.6L468.7,448.1L456.2,384.3Z" fill="rgb(255,136,34)" shape-rendering="crispEdges"></path>
    <path d="M498.9,325.4L589.3,338.1L525.2,259.8Z" fill="rgb(255,137,36)" shape-rendering="crispEdges"></path>
    <path d="M-9.1,350.4L-3.2,403.4L59.5,381.1Z" fill="rgb(239,84,67)" shape-rendering="crispEdges"></path>
    <path d="M-69.8,390.6L-3.2,403.4L-9.1,350.4Z" fill="rgb(237,84,66)" shape-rendering="crispEdges"></path>
    <path d="M199.1,-64.3L203.6,-22.6L278.8,-80.5Z" fill="rgb(246,84,69)" shape-rendering="crispEdges"></path>
    <path d="M203.6,-22.6L179.8,-38.9L174.3,51.3Z" fill="rgb(245,78,73)" shape-rendering="crispEdges"></path>
    <path d="M540.5,46.8L455.8,26.5L469.1,117.1Z" fill="rgb(251,125,48)" shape-rendering="crispEdges"></path>
    <path d="M400,28L420.8,-27.8L349.2,-18.2Z" fill="rgb(247,109,53)" shape-rendering="crispEdges"></path>
    <path d="M579.6,111.8L525.6,115.8L518,171.2Z" fill="rgb(255,128,48)" shape-rendering="crispEdges"></path>
    <path d="M518,171.2L525.6,115.8L476.8,155.7Z" fill="rgb(255,129,47)" shape-rendering="crispEdges"></path>
    <path d="M26.8,-27.5L32.1,36.1L89.1,26.8Z" fill="rgb(236,66,76)" shape-rendering="crispEdges"></path>
    <path d="M89.1,26.8L32.1,36.1L82.6,108.2Z" fill="rgb(241,67,78)" shape-rendering="crispEdges"></path>
    <path d="M33.9,510.6L78.3,514.8L46.2,454.5Z" fill="rgb(244,94,66)" shape-rendering="crispEdges"></path>
    <path d="M46.2,454.5L78.3,514.8L116.5,456.4Z" fill="rgb(248,94,68)" shape-rendering="crispEdges"></path>
    <path d="M230.7,588.7L275.3,572.2L198.2,527.5Z" fill="rgb(254,111,56)" shape-rendering="crispEdges"></path>
    <path d="M320.4,501.8L414.4,521.2L341,471.2Z" fill="rgb(254,128,40)" shape-rendering="crispEdges"></path>
    <path d="M275.3,572.2L320.4,501.8L267.3,508.8Z" fill="rgb(254,118,49)" shape-rendering="crispEdges"></path>
    <path d="M278.8,-80.5L203.6,-22.6L296.5,-13.8Z" fill="rgb(246,88,65)" shape-rendering="crispEdges"></path>
    <path d="M179.8,-38.9L89.4,-38.6L89.1,26.8Z" fill="rgb(244,68,79)" shape-rendering="crispEdges"></path>
    <path d="M178.3,588.1L198.2,527.5L158.5,522.1Z" fill="rgb(254,104,63)" shape-rendering="crispEdges"></path>
    <path d="M198.2,527.5L275.3,572.2L267.3,508.8Z" fill="rgb(254,113,54)" shape-rendering="crispEdges"></path>
    <path d="M517.3,449.8L542.1,389.8L456.2,384.3Z" fill="rgb(255,142,28)" shape-rendering="crispEdges"></path>
    <path d="M525.2,259.8L595.3,199.2L533.3,211.5Z" fill="rgb(255,132,42)" shape-rendering="crispEdges"></path>
    <path d="M517.3,449.8L456.2,384.3L468.7,448.1Z" fill="rgb(255,141,30)" shape-rendering="crispEdges"></path>
    <path d="M437.9,569.3L441.2,512.4L414.4,521.2Z" fill="rgb(255,138,32)" shape-rendering="crispEdges"></path>
    <path d="M414.4,521.2L441.2,512.4L415,444.6Z" fill="rgb(255,137,33)" shape-rendering="crispEdges"></path>
    <path d="M-28.7,221.7L-75.1,279.3L-21.8,296.1Z" fill="rgb(236,75,70)" shape-rendering="crispEdges"></path>
    <path d="M-21.8,296.1L-99.5,359.8L-9.1,350.4Z" fill="rgb(237,81,68)" shape-rendering="crispEdges"></path>
    <path d="M-73.6,199.2L-75.1,279.3L-28.7,221.7Z" fill="rgb(236,73,72)" shape-rendering="crispEdges"></path>
    <path d="M-73.6,199.2L-28.7,221.7L-67.9,159.7Z" fill="rgb(236,70,73)" shape-rendering="crispEdges"></path>
    <path d="M-28.7,221.7L-12.3,152.5L-67.9,159.7Z" fill="rgb(236,69,74)" shape-rendering="crispEdges"></path>
    <path d="M482.2,-17L420.8,-27.8L455.8,26.5Z" fill="rgb(248,118,50)" shape-rendering="crispEdges"></path>
    <path d="M455.8,26.5L420.8,-27.8L400,28Z" fill="rgb(248,114,52)" shape-rendering="crispEdges"></path>
    <path d="M338.3,-83.2L278.8,-80.5L296.5,-13.8Z" fill="rgb(246,96,61)" shape-rendering="crispEdges"></path>
    <path d="M-67.9,159.7L-12.3,152.5L-68.8,112.6Z" fill="rgb(236,67,75)" shape-rendering="crispEdges"></path>
    <path d="M-68.8,112.6L-12.3,152.5L1.2,107.9Z" fill="rgb(236,66,76)" shape-rendering="crispEdges"></path>
    <path d="M143.5,-64.7L89.4,-38.6L179.8,-38.9Z" fill="rgb(245,70,78)" shape-rendering="crispEdges"></path>
    <path d="M32.1,36.1L-3.8,29.6L1.2,107.9Z" fill="rgb(233,65,75)" shape-rendering="crispEdges"></path>
    <path d="M515.8,508L517.3,449.8L468.7,448.1Z" fill="rgb(255,146,25)" shape-rendering="crispEdges"></path>
    <path d="M338.3,-83.2L296.5,-13.8L349.2,-18.2Z" fill="rgb(246,99,59)" shape-rendering="crispEdges"></path>
    <path d="M278.8,-80.5L143.5,-64.7L199.1,-64.3Z" fill="rgb(246,81,71)" shape-rendering="crispEdges"></path>
    <path d="M199.1,-64.3L143.5,-64.7L179.8,-38.9Z" fill="rgb(245,76,74)" shape-rendering="crispEdges"></path>
    <path d="M275.3,572.2L348.3,572.2L320.4,501.8Z" fill="rgb(254,122,46)" shape-rendering="crispEdges"></path>
    <path d="M78.3,514.8L119.5,560.2L158.5,522.1Z" fill="rgb(253,98,69)" shape-rendering="crispEdges"></path>
    <path d="M178.3,588.1L230.7,588.7L198.2,527.5Z" fill="rgb(254,107,60)" shape-rendering="crispEdges"></path>
    <path d="M275.3,572.2L230.7,588.7L348.3,572.2Z" fill="rgb(254,118,50)" shape-rendering="crispEdges"></path>
    <path d="M-33.8,473.6L33.9,510.6L46.2,454.5Z" fill="rgb(239,92,65)" shape-rendering="crispEdges"></path>
    <path d="M78.3,514.8L21.5,585.7L119.5,560.2Z" fill="rgb(247,96,67)" shape-rendering="crispEdges"></path>
    <path d="M-33.8,473.6L46.2,454.5L-3.2,403.4Z" fill="rgb(238,89,65)" shape-rendering="crispEdges"></path>
    <path d="M26.8,-27.5L-3.8,29.6L32.1,36.1Z" fill="rgb(232,65,75)" shape-rendering="crispEdges"></path>
    <path d="M517.3,449.8L558.8,402.8L542.1,389.8Z" fill="rgb(255,143,28)" shape-rendering="crispEdges"></path>
    <path d="M542.1,389.8L589.3,338.1L498.9,325.4Z" fill="rgb(255,139,32)" shape-rendering="crispEdges"></path>
    <path d="M533.3,211.5L595.3,199.2L518,171.2Z" fill="rgb(255,131,44)" shape-rendering="crispEdges"></path>
    <path d="M119.5,560.2L178.3,588.1L158.5,522.1Z" fill="rgb(254,101,66)" shape-rendering="crispEdges"></path>
    <path d="M420.8,-27.8L338.3,-83.2L349.2,-18.2Z" fill="rgb(247,105,55)" shape-rendering="crispEdges"></path>
    <path d="M-3.8,29.6L-68.8,112.6L1.2,107.9Z" fill="rgb(234,65,75)" shape-rendering="crispEdges"></path>
    <path d="M-67.9,159.7L-68.8,112.6L-73.6,199.2Z" fill="rgb(236,68,75)" shape-rendering="crispEdges"></path>
    <path d="M602.2,302.3L595.3,199.2L525.2,259.8Z" fill="rgb(255,134,39)" shape-rendering="crispEdges"></path>
    <path d="M511.1,-17.1L482.2,-17L455.8,26.5Z" fill="rgb(248,123,48)" shape-rendering="crispEdges"></path>
    <path d="M-99.5,359.8L-69.8,390.6L-9.1,350.4Z" fill="rgb(237,83,67)" shape-rendering="crispEdges"></path>
    <path d="M558.8,402.8L589.3,338.1L542.1,389.8Z" fill="rgb(255,141,30)" shape-rendering="crispEdges"></path>
    <path d="M540.5,46.8L469.1,117.1L525.6,115.8Z" fill="rgb(253,127,48)" shape-rendering="crispEdges"></path>
    <path d="M420.8,-27.8L422.1,-84.7L338.3,-83.2Z" fill="rgb(247,109,53)" shape-rendering="crispEdges"></path>
    <path d="M579.6,111.8L540.5,46.8L525.6,115.8Z" fill="rgb(253,127,48)" shape-rendering="crispEdges"></path>
    <path d="M589.3,338.1L602.2,302.3L525.2,259.8Z" fill="rgb(255,136,36)" shape-rendering="crispEdges"></path>
    <path d="M600.2,168.8L579.6,111.8L518,171.2Z" fill="rgb(255,129,47)" shape-rendering="crispEdges"></path>
    <path d="M89.4,-38.6L26.8,-27.5L89.1,26.8Z" fill="rgb(238,66,77)" shape-rendering="crispEdges"></path>
    <path d="M-3.8,29.6L-75.3,19L-68.8,112.6Z" fill="rgb(232,65,75)" shape-rendering="crispEdges"></path>
    <path d="M84.8,-67.7L26.8,-27.5L89.4,-38.6Z" fill="rgb(238,66,77)" shape-rendering="crispEdges"></path>
    <path d="M602.2,302.3L600.2,168.8L595.3,199.2Z" fill="rgb(255,132,42)" shape-rendering="crispEdges"></path>
    <path d="M595.3,199.2L600.2,168.8L518,171.2Z" fill="rgb(255,130,45)" shape-rendering="crispEdges"></path>
    <path d="M143.5,-64.7L84.8,-67.7L89.4,-38.6Z" fill="rgb(243,68,78)" shape-rendering="crispEdges"></path>
    <path d="M24,-91.3L84.8,-67.7L143.5,-64.7Z" fill="rgb(240,67,77)" shape-rendering="crispEdges"></path>
    <path d="M-69.8,390.6L-33.8,473.6L-3.2,403.4Z" fill="rgb(237,87,66)" shape-rendering="crispEdges"></path>
    <path d="M33.9,510.6L21.5,585.7L78.3,514.8Z" fill="rgb(243,95,66)" shape-rendering="crispEdges"></path>
    <path d="M-75.1,279.3L-99.5,359.8L-21.8,296.1Z" fill="rgb(237,79,69)" shape-rendering="crispEdges"></path>
    <path d="M-69.8,390.6L-75.8,468.8L-33.8,473.6Z" fill="rgb(237,89,65)" shape-rendering="crispEdges"></path>
    <path d="M-73.6,199.2L-99.5,359.8L-75.1,279.3Z" fill="rgb(236,76,70)" shape-rendering="crispEdges"></path>
    <path d="M-89.7,-70.8L-99.5,359.8L-73.6,199.2Z" fill="rgb(236,68,75)" shape-rendering="crispEdges"></path>
    <path d="M441.2,512.4L515.8,508L468.7,448.1Z" fill="rgb(255,144,27)" shape-rendering="crispEdges"></path>
    <path d="M517.3,449.8L585.6,462.6L558.8,402.8Z" fill="rgb(255,144,27)" shape-rendering="crispEdges"></path>
    <path d="M421.1,597.3L437.9,569.3L414.4,521.2Z" fill="rgb(255,137,33)" shape-rendering="crispEdges"></path>
    <path d="M421.1,597.3L414.4,521.2L348.3,572.2Z" fill="rgb(255,133,36)" shape-rendering="crispEdges"></path>
    <path d="M437.9,569.3L515.8,508L441.2,512.4Z" fill="rgb(255,143,28)" shape-rendering="crispEdges"></path>
    <path d="M558.8,402.8L585.6,462.6L589.3,338.1Z" fill="rgb(255,142,29)" shape-rendering="crispEdges"></path>
    <path d="M590.4,-7.3L511.1,-17.1L540.5,46.8Z" fill="rgb(248,126,47)" shape-rendering="crispEdges"></path>
    <path d="M540.5,46.8L511.1,-17.1L455.8,26.5Z" fill="rgb(249,126,47)" shape-rendering="crispEdges"></path>
    <path d="M445.1,-88.7L422.1,-84.7L420.8,-27.8Z" fill="rgb(247,115,51)" shape-rendering="crispEdges"></path>
    <path d="M445.1,-88.7L420.8,-27.8L482.2,-17Z" fill="rgb(247,118,50)" shape-rendering="crispEdges"></path>
    <path d="M-21,-59.3L-8.8,-26.3L26.8,-27.5Z" fill="rgb(229,64,74)" shape-rendering="crispEdges"></path>
    <path d="M26.8,-27.5L-8.8,-26.3L-3.8,29.6Z" fill="rgb(230,64,74)" shape-rendering="crispEdges"></path>
    <path d="M-73.9,602.1L421.1,597.3L230.7,588.7Z" fill="rgb(254,106,61)" shape-rendering="crispEdges"></path>
    <path d="M230.7,588.7L421.1,597.3L348.3,572.2Z" fill="rgb(254,125,44)" shape-rendering="crispEdges"></path>
    <path d="M567.7,566.5L591.4,524.6L515.8,508Z" fill="rgb(255,148,23)" shape-rendering="crispEdges"></path>
    <path d="M-75.6,513.9L-12,541.1L-33.8,473.6Z" fill="rgb(237,93,64)" shape-rendering="crispEdges"></path>
    <path d="M-33.8,473.6L-12,541.1L33.9,510.6Z" fill="rgb(237,93,64)" shape-rendering="crispEdges"></path>
    <path d="M119.5,560.2L21.5,585.7L178.3,588.1Z" fill="rgb(251,97,68)" shape-rendering="crispEdges"></path>
    <path d="M514.7,-82.6L445.1,-88.7L482.2,-17Z" fill="rgb(248,123,48)" shape-rendering="crispEdges"></path>
    <path d="M422.1,-84.7L445.1,-88.7L338.3,-83.2Z" fill="rgb(247,110,53)" shape-rendering="crispEdges"></path>
    <path d="M338.3,-83.2L24,-91.3L278.8,-80.5Z" fill="rgb(246,82,70)" shape-rendering="crispEdges"></path>
    <path d="M-99.5,359.8L-75.8,468.8L-69.8,390.6Z" fill="rgb(237,86,66)" shape-rendering="crispEdges"></path>
    <path d="M591.4,524.6L585.6,462.6L515.8,508Z" fill="rgb(255,148,23)" shape-rendering="crispEdges"></path>
    <path d="M515.8,508L585.6,462.6L517.3,449.8Z" fill="rgb(255,146,25)" shape-rendering="crispEdges"></path>
    <path d="M589.3,338.1L585.6,462.6L602.2,302.3Z" fill="rgb(255,140,31)" shape-rendering="crispEdges"></path>
    <path d="M-66,-4L-75.3,19L-3.8,29.6Z" fill="rgb(230,64,74)" shape-rendering="crispEdges"></path>
    <path d="M-68.8,112.6L-75.3,19L-73.6,199.2Z" fill="rgb(235,66,76)" shape-rendering="crispEdges"></path>
    <path d="M-25.1,595.7L21.5,585.7L-12,541.1Z" fill="rgb(237,93,64)" shape-rendering="crispEdges"></path>
    <path d="M-12,541.1L21.5,585.7L33.9,510.6Z" fill="rgb(239,93,65)" shape-rendering="crispEdges"></path>
    <path d="M178.3,588.1L-73.9,602.1L230.7,588.7Z" fill="rgb(252,97,69)" shape-rendering="crispEdges"></path>
    <path d="M-21,-59.3L-66,-4L-8.8,-26.3Z" fill="rgb(229,64,74)" shape-rendering="crispEdges"></path>
    <path d="M-8.8,-26.3L-66,-4L-3.8,29.6Z" fill="rgb(229,64,74)" shape-rendering="crispEdges"></path>
    <path d="M579.6,111.8L601.9,43.6L540.5,46.8Z" fill="rgb(252,127,48)" shape-rendering="crispEdges"></path>
    <path d="M511.1,-17.1L514.7,-82.6L482.2,-17Z" fill="rgb(248,125,47)" shape-rendering="crispEdges"></path>
    <path d="M600.2,168.8L601.9,43.6L579.6,111.8Z" fill="rgb(254,128,48)" shape-rendering="crispEdges"></path>
    <path d="M602.2,302.3L601.9,43.6L600.2,168.8Z" fill="rgb(255,130,45)" shape-rendering="crispEdges"></path>
    <path d="M278.8,-80.5L24,-91.3L143.5,-64.7Z" fill="rgb(245,72,77)" shape-rendering="crispEdges"></path>
    <path d="M84.8,-67.7L24,-91.3L26.8,-27.5Z" fill="rgb(235,66,76)" shape-rendering="crispEdges"></path>
    <path d="M445.1,-88.7L24,-91.3L338.3,-83.2Z" fill="rgb(246,90,64)" shape-rendering="crispEdges"></path>
    <path d="M24,-91.3L-21,-59.3L26.8,-27.5Z" fill="rgb(230,64,74)" shape-rendering="crispEdges"></path>
    <path d="M-99.5,359.8L-75.6,513.9L-75.8,468.8Z" fill="rgb(237,89,65)" shape-rendering="crispEdges"></path>
    <path d="M-75.8,468.8L-75.6,513.9L-33.8,473.6Z" fill="rgb(237,92,65)" shape-rendering="crispEdges"></path>
    <path d="M573.8,-97.6L514.7,-82.6L511.1,-17.1Z" fill="rgb(248,125,47)" shape-rendering="crispEdges"></path>
    <path d="M601.9,43.6L590.4,-7.3L540.5,46.8Z" fill="rgb(249,126,47)" shape-rendering="crispEdges"></path>
    <path d="M529.3,595.7L515.8,508L437.9,569.3Z" fill="rgb(255,147,24)" shape-rendering="crispEdges"></path>
    <path d="M585.6,462.6L591.4,524.6L602.2,302.3Z" fill="rgb(255,144,27)" shape-rendering="crispEdges"></path>
    <path d="M-73.9,602.1L-25.1,595.7L-12,541.1Z" fill="rgb(237,93,64)" shape-rendering="crispEdges"></path>
    <path d="M21.5,585.7L-25.1,595.7L178.3,588.1Z" fill="rgb(245,95,67)" shape-rendering="crispEdges"></path>
    <path d="M421.1,597.3L529.3,595.7L437.9,569.3Z" fill="rgb(255,143,28)" shape-rendering="crispEdges"></path>
    <path d="M529.3,595.7L567.7,566.5L515.8,508Z" fill="rgb(255,148,23)" shape-rendering="crispEdges"></path>
    <path d="M24,-91.3L-89.7,-70.8L-21,-59.3Z" fill="rgb(229,64,74)" shape-rendering="crispEdges"></path>
    <path d="M-21,-59.3L-89.7,-70.8L-66,-4Z" fill="rgb(229,64,74)" shape-rendering="crispEdges"></path>
    <path d="M-66,-4L-89.7,-70.8L-75.3,19Z" fill="rgb(229,64,74)" shape-rendering="crispEdges"></path>
    <path d="M-75.3,19L-89.7,-70.8L-73.6,199.2Z" fill="rgb(232,65,75)" shape-rendering="crispEdges"></path>
    <path d="M601.9,43.6L573.8,-97.6L590.4,-7.3Z" fill="rgb(248,125,47)" shape-rendering="crispEdges"></path>
    <path d="M590.4,-7.3L573.8,-97.6L511.1,-17.1Z" fill="rgb(248,125,47)" shape-rendering="crispEdges"></path>
    <path d="M514.7,-82.6L573.8,-97.6L445.1,-88.7Z" fill="rgb(248,125,47)" shape-rendering="crispEdges"></path>
    <path d="M445.1,-88.7L573.8,-97.6L24,-91.3Z" fill="rgb(247,102,57)" shape-rendering="crispEdges"></path>
    <path d="M-99.5,359.8L-73.9,602.1L-75.6,513.9Z" fill="rgb(237,92,65)" shape-rendering="crispEdges"></path>
    <path d="M-75.6,513.9L-73.9,602.1L-12,541.1Z" fill="rgb(237,93,64)" shape-rendering="crispEdges"></path>
    <path d="M-25.1,595.7L-73.9,602.1L178.3,588.1Z" fill="rgb(241,94,65)" shape-rendering="crispEdges"></path>
</svg>
